<?xml version="1.0" ?><svg id="Layer_1" style="enable-background:new 0 0 120 120;" version="1.1" viewBox="0 0 120 120" xml:space="preserve" xmlns="http://www.w3.org/2000/svg" xmlns:xlink="http://www.w3.org/1999/xlink"><style type="text/css">
	.st0{fill:#4B64FF;}
	.st1{fill:#FFFFFF;}
</style><g><circle class="st0" cx="60" cy="60" r="45.7"/><path class="st1" d="M73.2,67.8c-2.9,0-5.4,1.2-7.2,3.2l-15.8-9.2c0.1-0.5,0.1-0.9,0.1-1.4c0-0.9-0.1-1.7-0.3-2.5l15.8-9.2   c1.8,2.1,4.5,3.4,7.5,3.4c5.5,0,9.9-4.4,9.9-9.9c0-5.5-4.4-9.9-9.9-9.9s-9.9,4.4-9.9,9.9c0,0.2,0,0.5,0,0.7l-16.7,9.7   c-1.7-1.4-3.8-2.2-6.2-2.2c-5.5,0-9.9,4.4-9.9,9.9s4.4,9.9,9.9,9.9c2.7,0,5.2-1.1,7-2.9l15.9,9.3c0,0.4-0.1,0.7-0.1,1.1   c0,5.5,4.4,9.9,9.9,9.9s9.9-4.4,9.9-9.9S78.7,67.8,73.2,67.8z"/></g></svg>